#!OML:ASF E:\Style4\Style4.ASF
:FULLY-SPECIFIED
:DEGREES
2789
root -0.214996 17.9281 -1.27441 -1.42452 -4.1833 3.69429
lowerback 2.76665 6.01767 2.31701
upperback -2.08438 8.09122 -1.46927
thorax -3.15905 3.96495 -3.20168
lowerneck -0.210793 -6.78182 -5.5615
upperneck -0.143615 -9.05688 6.12103
head 0.563995 -4.52278 2.80925
rclavicle 5.55355e-015 -1.59028e-015
rhumerus 29.034 19.033 -80.7834
rradius 55.2591
rwrist -90.9495
rhand -30.6938 12.9142
rfingers 7.12502
rthumb -3.98749 -17.0282
lclavicle 5.55355e-015 -1.59028e-015
lhumerus -61.1793 -32.8862 92.8623
lradius 130.728
lwrist 55.1305
lhand 8.0714 23.8826
lfingers 7.12502
lthumb 33.2949 50.8202
rfemur -7.32308 3.85719 14.6977
rtibia 27.6646
rfoot -18.046 -11.448
rtoes -10.2654
lfemur 1.68334 1.80471 -23.6752
ltibia 16.7478
lfoot -18.7786 13.829
ltoes -11.7977
2790
root -0.198046 17.9281 -1.28114 -1.42996 -4.5876 3.78912
lowerback 2.7666 5.95453 2.30804
upperback -2.0601 8.01185 -1.26805
thorax -3.16904 3.9272 -2.98812
lowerneck -0.193303 -6.84126 -5.65022
upperneck -0.132144 -9.13906 6.30929
head 0.584668 -4.5638 2.88606
rclavicle 8.07563e-014 -7.95139e-015
rhumerus 29.3711 18.9834 -80.4912
rradius 54.8658
rwrist -90.9602
rhand -30.6014 13.0051
rfingers 7.12502
rthumb -3.89823 -16.939
lclavicle 8.07563e-014 -7.95139e-015
lhumerus -61.3859 -32.9646 93.1328
lradius 130.663
lwrist 55.0857
lhand 8.07953 23.7365
lfingers 7.12502
lthumb 33.3026 50.6724
rfemur -7.51144 4.13203 14.5354
rtibia 27.7736
rfoot -18.052 -11.3181
rtoes -10.4362
lfemur 1.7418 2.0572 -23.8349
ltibia 16.605
lfoot -18.7697 13.9431
ltoes -11.2989
2791
root -0.180315 17.929 -1.29074 -1.37975 -5.17225 3.82087
lowerback 2.73339 5.90008 2.38292
upperback -2.03052 7.94745 -1.04783
thorax -3.145 3.8961 -2.7966
lowerneck -0.19314 -6.86624 -5.70114
upperneck -0.109232 -9.17446 6.45115
head 0.604704 -4.58118 2.94104
rclavicle 1.47026e-013 9.14409e-015
rhumerus 29.7625 19.106 -80.1684
rradius 54.5452
rwrist -91.0303
rhand -30.4028 12.9445
rfingers 7.12502
rthumb -3.70643 -17.003
lclavicle 1.47026e-013 9.14409e-015
lhumerus -61.5279 -33.0031 93.3601
lradius 130.612
lwrist 54.9596
lhand 8.02619 23.3282
lfingers 7.12502
lthumb 33.2519 50.2749
rfemur -7.7873 4.49501 14.4268
rtibia 27.8372
rfoot -18.0473 -11.0828
rtoes -10.2845
lfemur 1.73054 2.37309 -23.9504
ltibia 16.486
lfoot -18.8345 14.2053
ltoes -11.1861
2792
root -0.163136 17.9299 -1.29978 -1.35253 -5.66475 3.92095
lowerback 2.74665 5.81599 2.39125
upperback -1.99806 7.841 -0.849295
thorax -3.15189 3.84466 -2.59516
lowerneck -0.214915 -6.90906 -5.68827
upperneck -0.120331 -9.23083 6.52885
head 0.612299 -4.60877 2.96253
rclavicle -1.1281e-014 3.97569e-016
rhumerus 30.174 19.3637 -79.7303
rradius 54.326
rwrist -90.9526
rhand -30.4733 12.9299
rfingers 7.12502
rthumb -3.77453 -17.0164
lclavicle -1.1281e-014 3.97569e-016
lhumerus -61.5837 -33.1327 93.5434
lradius 130.62
lwrist 54.9239
lhand 7.94485 23.0944
lfingers 7.12502
lthumb 33.1746 50.0576
rfemur -8.00449 4.78434 14.2519
rtibia 27.8802
rfoot -17.9318 -10.965
rtoes -10.6782
lfemur 1.74408 2.57667 -24.1438
ltibia 16.3632
lfoot -18.8358 14.4407
ltoes -10.9813
2793
root -0.147029 17.9287 -1.30691 -1.37192 -6.078 4.02265
lowerback 2.84318 5.76073 2.41133
upperback -1.99327 7.77459 -0.70414
thorax -3.22237 3.81076 -2.46723
lowerneck -0.163762 -7.01376 -5.598
upperneck -0.191616 -9.37132 6.64464
head 0.591726 -4.67967 2.98489
rclavicle -5.41191e-014 1.27222e-014
rhumerus 30.5517 19.5596 -79.1811
rradius 54.1251
rwrist -90.8565
rhand -30.6647 13.3175
rfingers 7.12502
rthumb -3.95939 -16.6255
lclavicle -5.41191e-014 1.27222e-014
lhumerus -61.7164 -33.3956 93.6436
lradius 130.729
lwrist 54.9731
lhand 7.64805 22.6687
lfingers 7.12502
lthumb 32.8923 49.6916
rfemur -8.19331 5.05068 14.0833
rtibia 27.9301
rfoot -17.7604 -10.9126
rtoes -11.4
lfemur 1.8249 2.69459 -24.3314
ltibia 16.2229
lfoot -18.8822 14.5856
ltoes -10.3063
2794
root -0.13015 17.9262 -1.31238 -1.41661 -6.52104 4.16336
lowerback 2.985 5.74818 2.50269
upperback -2.00114 7.76712 -0.657628
thorax -3.30508 3.80328 -2.48589
lowerneck -0.0631409 -7.14347 -5.43484
upperneck -0.280415 -9.54681 6.80671
head 0.558117 -4.76906 3.01132
rclavicle 2.95692e-014 5.56597e-015
rhumerus 30.843 19.5463 -78.7909
rradius 53.8999
rwrist -90.6154
rhand -30.7031 13.5719
rfingers 7.12502
rthumb -3.99647 -16.3704
lclavicle 2.95692e-014 5.56597e-015
lhumerus -61.9333 -33.7709 93.7085
lradius 130.824
lwrist 55.0178
lhand 7.24601 22.059
lfingers 7.12502
lthumb 32.5098 49.1613
rfemur -8.36959 5.25129 13.8592
rtibia 27.9966
rfoot -17.6226 -10.7463
rtoes -11.9902
lfemur 1.9488 2.8987 -24.557
ltibia 16.0628
lfoot -19.0126 14.8341
ltoes -10.6419
2795
root -0.113997 17.9268 -1.31931 -1.40274 -6.98583 4.26663
lowerback 3.14461 5.70059 2.63622
upperback -2.07096 7.71696 -0.606949
thorax -3.45965 3.77117 -2.52756
lowerneck 0.106905 -7.2305 -5.30022
upperneck -0.384355 -9.66668 6.9849
head 0.506488 -4.83225 3.05325
rclavicle 6.95746e-015 7.95139e-016
rhumerus 30.9494 19.5215 -78.7502
rradius 53.6791
rwrist -90.1102
rhand -30.6262 13.3862
rfingers 7.12502
rthumb -3.92217 -16.5574
lclavicle 6.95746e-015 7.95139e-016
lhumerus -62.2474 -34.1053 93.8279
lradius 130.895
lwrist 54.875
lhand 7.59287 22.1212
lfingers 7.12502
lthumb 32.8398 49.155
rfemur -8.54882 5.38626 13.6749
rtibia 28.0889
rfoot -17.6525 -10.3842
rtoes -11.7806
lfemur 2.01556 3.1231 -24.7398
ltibia 15.8829
lfoot -19.0881 15.0834
ltoes -10.4596
2796
root -0.0976644 17.9278 -1.32753 -1.37534 -7.43338 4.30167
lowerback 3.40448 5.61791 2.79403
upperback -2.21031 7.62819 -0.50203
thorax -3.74977 3.7154 -2.54146
lowerneck 0.159337 -7.30084 -5.45655
upperneck -0.206015 -9.77487 7.32395
head 0.589934 -4.88606 3.1903
rclavicle -5.97348e-014 -2.3059e-014
rhumerus 30.8851 19.5082 -78.8607
rradius 53.5554
rwrist -89.8247
rhand -30.7286 13.1298
rfingers 7.12502
rthumb -4.02106 -16.812
lclavicle -5.97348e-014 -2.3059e-014
lhumerus -62.7362 -34.436 94.1443
lradius 130.897
lwrist 54.3882
lhand 8.11472 21.9352
lfingers 7.12502
lthumb 33.3361 48.8639
rfemur -8.7437 5.55582 13.5736
rtibia 28.2021
rfoot -17.6493 -10.1549
rtoes -11.8884
lfemur 2.0611 3.22807 -24.8567
ltibia 15.7115
lfoot -19.1782 15.2923
ltoes -9.72299
2797
root -0.0821805 17.9259 -1.33291 -1.38356 -7.8818 4.45261
lowerback 3.81289 5.51072 2.81026
upperback -2.43387 7.50644 -0.421464
thorax -4.22859 3.64063 -2.52356
lowerneck 0.178815 -7.35249 -5.66744
upperneck 0.105991 -9.86511 7.65809
head 0.724545 -4.92934 3.33254
rclavicle 5.99336e-014 1.59028e-014
rhumerus 30.7995 19.5905 -78.9156
rradius 53.4204
rwrist -89.8724
rhand -30.7792 13.0591
rfingers 7.12502
rthumb -4.06997 -16.8818
lclavicle 5.99336e-014 1.59028e-014
lhumerus -63.4156 -34.6497 94.5382
lradius 130.859
lwrist 53.8626
lhand 8.4677 21.7456
lfingers 7.12502
lthumb 33.6716 48.6016
rfemur -8.93435 5.83363 13.3418
rtibia 28.2577
rfoot -17.6369 -9.96738
rtoes -11.6977
lfemur 2.07544 3.32024 -25.107
ltibia 15.6667
lfoot -19.3858 15.5451
ltoes -9.47231
2798
root -0.0669381 17.9259 -1.33923 -1.35414 -8.3491 4.52693
lowerback 3.9705 5.43152 2.90165
upperback -2.51185 7.41728 -0.310384
thorax -4.40758 3.58941 -2.47736
lowerneck 0.306055 -7.42642 -5.73359
upperneck 0.0892497 -9.97202 7.90483
head 0.723517 -4.98503 3.43101
rclavicle -5.96354e-015 -1.35174e-014
rhumerus 30.9919 19.6345 -78.7465
rradius 53.3248
rwrist -90.0184
rhand -30.7089 12.9553
rfingers 7.12502
rthumb -4.00203 -16.9869
lclavicle -5.96354e-015 -1.35174e-014
lhumerus -63.6481 -34.8906 94.6996
lradius 130.837
lwrist 53.7091
lhand 9.1235 22.1107
lfingers 7.12502
lthumb 34.2945 48.8286
rfemur -9.11681 6.13106 13.2063
rtibia 28.236
rfoot -17.5864 -9.84214
rtoes -11.8683
lfemur 1.97996 3.44974 -25.2689
ltibia 15.7392
lfoot -19.5813 15.7942
ltoes -9.0055
2799
root -0.0516431 17.93 -1.34255 -1.20711 -8.82113 4.2234
lowerback 3.58277 5.2965 3.27871
upperback -2.29035 7.25059 0.0112905
thorax -3.96366 3.51365 -2.28684
lowerneck 0.267481 -7.45112 -5.70274
upperneck -0.171862 -9.98925 7.94071
head 0.648127 -4.99449 3.44103
rclavicle -5.22804e-014 -2.38542e-015
rhumerus 31.675 19.8116 -78.3609
rradius 53.2229
rwrist -90.1512
rhand -30.6461 12.8509
rfingers 7.12502
rthumb -3.94139 -17.0924
lclavicle -5.22804e-014 -2.38542e-015
lhumerus -63.177 -34.9077 94.5488
lradius 130.821
lwrist 53.7752
lhand 9.06223 22.238
lfingers 7.12502
lthumb 34.2364 48.969
rfemur -9.35835 6.43139 13.489
rtibia 28.2481
rfoot -17.5217 -9.74946
rtoes -12.0743
lfemur 1.8836 3.6806 -24.9958
ltibia 15.7179
lfoot -19.7191 15.8411
ltoes -8.35079
